<?xml version="1.0" encoding="UTF-8"?>
<svg version="1.1" xmlns="http://www.w3.org/2000/svg" width="71" height="55">
<path d="M0 0 C1.73050598 -0.00430527 1.73050598 -0.00430527 3.49597168 -0.00869751 C5.93009941 -0.01073494 8.36424363 -0.00522765 10.79833984 0.00732422 C14.51827705 0.0233815 18.23712773 0.00746362 21.95703125 -0.01171875 C24.32552322 -0.00973626 26.69401453 -0.00589247 29.0625 0 C30.17202026 -0.00607269 31.28154053 -0.01214539 32.42468262 -0.0184021 C42.79328979 0.07576133 42.79328979 0.07576133 47.03125 3.3984375 C49.89448796 8.33165012 50.48818469 12.85676794 50.46484375 18.45703125 C50.4700856 19.2050148 50.47532745 19.95299835 50.48072815 20.72364807 C50.48711352 22.29597744 50.48585682 23.8683548 50.47729492 25.44067383 C50.46878345 27.82656139 50.49759304 30.21005125 50.52929688 32.59570312 C50.60134925 47.34403251 50.60134925 47.34403251 46.03125 53.3984375 C42.51189668 55.18468308 39.61267832 55.65330403 35.69360352 55.6730957 C34.65224747 55.68262772 33.61089142 55.69215973 32.53797913 55.70198059 C30.8659568 55.70061348 30.8659568 55.70061348 29.16015625 55.69921875 C27.42752785 55.70564644 27.42752785 55.70564644 25.65989685 55.71220398 C23.21980443 55.71794087 20.77969491 55.71845228 18.33959961 55.71411133 C14.61086801 55.710952 10.8829304 55.73441751 7.15429688 55.75976562 C4.781251 55.76203876 2.40820299 55.76274205 0.03515625 55.76171875 C-1.63382973 55.77553337 -1.63382973 55.77553337 -3.33653259 55.78962708 C-13.73115862 55.72764006 -13.73115862 55.72764006 -17.96875 52.3984375 C-20.84739103 47.44799545 -21.41541965 42.92393301 -21.3671875 37.3046875 C-21.37005768 36.55433228 -21.37292786 35.80397705 -21.37588501 35.03088379 C-21.37791421 33.45433796 -21.37246492 31.8777663 -21.35986328 30.30126953 C-21.34379196 27.90469419 -21.35974978 25.50980489 -21.37890625 23.11328125 C-21.37692361 21.57291299 -21.37307951 20.03254577 -21.3671875 18.4921875 C-21.37326019 17.7846936 -21.37933289 17.07719971 -21.3855896 16.3482666 C-21.31656344 11.40220054 -20.45957153 7.68194056 -17.96875 3.3984375 C-12.71543859 -0.72030165 -6.37218454 -0.03487662 0 0 Z M8.03125 17.3984375 C8.03125 23.6684375 8.03125 29.9384375 8.03125 36.3984375 C11.84400879 34.87333398 14.89142055 33.39086623 18.34375 31.2734375 C19.66826172 30.46519531 19.66826172 30.46519531 21.01953125 29.640625 C21.68339844 29.23070312 22.34726562 28.82078125 23.03125 28.3984375 C19.7994284 25.79212976 16.54496354 23.21464289 13.28125 20.6484375 C12.50265625 20.03484375 11.7240625 19.42125 10.921875 18.7890625 C9.28815323 17.29968458 9.28815323 17.29968458 8.03125 17.3984375 Z " fill="#FEFEFE" transform="translate(20.96875,-0.3984375)"/>
<path d="M0 0 C2.96783129 1.45668783 5.86415313 3.01232086 8.75 4.625 C9.94882812 5.29402344 9.94882812 5.29402344 11.171875 5.9765625 C11.77515625 6.31429688 12.3784375 6.65203125 13 7 C12.34 7.66 11.68 8.32 11 9 C9.35050343 7.88037801 7.70550162 6.75413155 6.0625 5.625 C5.14597656 4.99851562 4.22945312 4.37203125 3.28515625 3.7265625 C1 2 1 2 0 0 Z " fill="#111111" transform="translate(33,19)"/>
</svg>
